<mxfile host="app.diagrams.net" agent="Mozilla/5.0 (Windows NT 10.0; Win64; x64) AppleWebKit/537.36 (KHTML, like Gecko) Chrome/134.0.0.0 Safari/537.36 Edg/134.0.0.0" version="26.1.0">
  <diagram name="Page-1" id="qb809Mc37jny5ROru1xf">
    <mxGraphModel dx="1276" dy="681" grid="0" gridSize="10" guides="1" tooltips="1" connect="1" arrows="1" fold="1" page="0" pageScale="1" pageWidth="850" pageHeight="1100" math="0" shadow="0">
      <root>
        <mxCell id="0" />
        <mxCell id="1" parent="0" />
        <mxCell id="uyLfLBw68PQgpM0fTjDZ-1" value="" style="image;aspect=fixed;html=1;points=[];align=center;fontSize=12;image=img/lib/azure2/other/Windows_Virtual_Desktop.svg;" parent="1" vertex="1">
          <mxGeometry x="175" y="24" width="68" height="68" as="geometry" />
        </mxCell>
        <mxCell id="uyLfLBw68PQgpM0fTjDZ-11" style="edgeStyle=orthogonalEdgeStyle;rounded=0;orthogonalLoop=1;jettySize=auto;html=1;" parent="1" source="uyLfLBw68PQgpM0fTjDZ-2" edge="1">
          <mxGeometry relative="1" as="geometry">
            <mxPoint x="209" y="174.00001525878906" as="targetPoint" />
          </mxGeometry>
        </mxCell>
        <mxCell id="uyLfLBw68PQgpM0fTjDZ-2" value="Azure Virtual&lt;br&gt;&amp;nbsp;Desktop&lt;div&gt;(AVD)&lt;/div&gt;" style="text;html=1;align=center;verticalAlign=middle;resizable=0;points=[];autosize=1;strokeColor=none;fillColor=none;" parent="1" vertex="1">
          <mxGeometry x="166" y="92" width="86" height="55" as="geometry" />
        </mxCell>
        <mxCell id="uyLfLBw68PQgpM0fTjDZ-3" value="" style="image;aspect=fixed;html=1;points=[];align=center;fontSize=12;image=img/lib/azure2/management_governance/Monitor.svg;" parent="1" vertex="1">
          <mxGeometry x="179" y="178" width="64" height="64" as="geometry" />
        </mxCell>
        <mxCell id="uyLfLBw68PQgpM0fTjDZ-4" value="Azure Monitor" style="text;html=1;align=center;verticalAlign=middle;resizable=0;points=[];autosize=1;strokeColor=none;fillColor=none;" parent="1" vertex="1">
          <mxGeometry x="164.5" y="245" width="93" height="26" as="geometry" />
        </mxCell>
        <mxCell id="uyLfLBw68PQgpM0fTjDZ-5" value="" style="image;aspect=fixed;html=1;points=[];align=center;fontSize=12;image=img/lib/azure2/analytics/Event_Hubs.svg;" parent="1" vertex="1">
          <mxGeometry x="327.5" y="303" width="67" height="60" as="geometry" />
        </mxCell>
        <mxCell id="uyLfLBw68PQgpM0fTjDZ-6" value="Azure Event Hub" style="text;html=1;align=center;verticalAlign=middle;resizable=0;points=[];autosize=1;strokeColor=none;fillColor=none;" parent="1" vertex="1">
          <mxGeometry x="306.5" y="363" width="109" height="26" as="geometry" />
        </mxCell>
        <mxCell id="cF_BGHcVGKTdRNBgxszt-8" style="edgeStyle=orthogonalEdgeStyle;rounded=0;orthogonalLoop=1;jettySize=auto;html=1;" edge="1" parent="1" source="uyLfLBw68PQgpM0fTjDZ-8" target="uyLfLBw68PQgpM0fTjDZ-9">
          <mxGeometry relative="1" as="geometry" />
        </mxCell>
        <mxCell id="uyLfLBw68PQgpM0fTjDZ-8" value="AWS DataSync" style="text;html=1;align=center;verticalAlign=middle;resizable=0;points=[];autosize=1;strokeColor=none;fillColor=none;" parent="1" vertex="1">
          <mxGeometry x="26" y="507" width="100" height="26" as="geometry" />
        </mxCell>
        <mxCell id="uyLfLBw68PQgpM0fTjDZ-9" value="" style="sketch=0;outlineConnect=0;fontColor=#232F3E;gradientColor=none;fillColor=#7AA116;strokeColor=none;dashed=0;verticalLabelPosition=bottom;verticalAlign=top;align=center;html=1;fontSize=12;fontStyle=0;aspect=fixed;pointerEvents=1;shape=mxgraph.aws4.bucket;" parent="1" vertex="1">
          <mxGeometry x="39" y="574" width="75" height="78" as="geometry" />
        </mxCell>
        <mxCell id="uyLfLBw68PQgpM0fTjDZ-10" value="Amazon S3" style="text;html=1;align=center;verticalAlign=middle;resizable=0;points=[];autosize=1;strokeColor=none;fillColor=none;" parent="1" vertex="1">
          <mxGeometry x="34" y="652" width="80" height="26" as="geometry" />
        </mxCell>
        <mxCell id="uyLfLBw68PQgpM0fTjDZ-13" style="edgeStyle=orthogonalEdgeStyle;rounded=0;orthogonalLoop=1;jettySize=auto;html=1;entryX=0.5;entryY=0;entryDx=0;entryDy=0;entryPerimeter=0;" parent="1" source="uyLfLBw68PQgpM0fTjDZ-6" edge="1">
          <mxGeometry relative="1" as="geometry">
            <mxPoint x="361.0000000000002" y="420" as="targetPoint" />
          </mxGeometry>
        </mxCell>
        <mxCell id="uyLfLBw68PQgpM0fTjDZ-15" value="User Sessions, Connections, Audit Logs" style="text;html=1;align=center;verticalAlign=middle;resizable=0;points=[];autosize=1;strokeColor=none;fillColor=none;" parent="1" vertex="1">
          <mxGeometry x="296" y="45" width="231" height="26" as="geometry" />
        </mxCell>
        <mxCell id="uyLfLBw68PQgpM0fTjDZ-16" value="Collects logs &amp;amp; forwards via Diagnostic Logs" style="text;html=1;align=center;verticalAlign=middle;resizable=0;points=[];autosize=1;strokeColor=none;fillColor=none;" parent="1" vertex="1">
          <mxGeometry x="284.5" y="197" width="254" height="26" as="geometry" />
        </mxCell>
        <mxCell id="uyLfLBw68PQgpM0fTjDZ-17" value="Acts as a log streaming service" style="text;html=1;align=center;verticalAlign=middle;resizable=0;points=[];autosize=1;strokeColor=none;fillColor=none;" parent="1" vertex="1">
          <mxGeometry x="469.5" y="325" width="184" height="26" as="geometry" />
        </mxCell>
        <mxCell id="uyLfLBw68PQgpM0fTjDZ-18" value="Fetches logs, parses, formats" style="text;html=1;align=center;verticalAlign=middle;resizable=0;points=[];autosize=1;strokeColor=none;fillColor=none;" parent="1" vertex="1">
          <mxGeometry x="469.5" y="446" width="175" height="26" as="geometry" />
        </mxCell>
        <mxCell id="cF_BGHcVGKTdRNBgxszt-1" value="" style="sketch=0;points=[[0,0,0],[0.25,0,0],[0.5,0,0],[0.75,0,0],[1,0,0],[0,1,0],[0.25,1,0],[0.5,1,0],[0.75,1,0],[1,1,0],[0,0.25,0],[0,0.5,0],[0,0.75,0],[1,0.25,0],[1,0.5,0],[1,0.75,0]];outlineConnect=0;fontColor=#232F3E;fillColor=#01A88D;strokeColor=#ffffff;dashed=0;verticalLabelPosition=bottom;verticalAlign=top;align=center;html=1;fontSize=12;fontStyle=0;aspect=fixed;shape=mxgraph.aws4.resourceIcon;resIcon=mxgraph.aws4.datasync;" vertex="1" parent="1">
          <mxGeometry x="37.5" y="429" width="78" height="78" as="geometry" />
        </mxCell>
        <mxCell id="cF_BGHcVGKTdRNBgxszt-3" value="" style="image;aspect=fixed;html=1;points=[];align=center;fontSize=12;image=img/lib/azure2/general/Storage_Container.svg;" vertex="1" parent="1">
          <mxGeometry x="44" y="307" width="64" height="52" as="geometry" />
        </mxCell>
        <mxCell id="cF_BGHcVGKTdRNBgxszt-7" style="edgeStyle=orthogonalEdgeStyle;rounded=0;orthogonalLoop=1;jettySize=auto;html=1;" edge="1" parent="1" source="cF_BGHcVGKTdRNBgxszt-4">
          <mxGeometry relative="1" as="geometry">
            <mxPoint x="76.5" y="425.54971474095396" as="targetPoint" />
          </mxGeometry>
        </mxCell>
        <mxCell id="cF_BGHcVGKTdRNBgxszt-4" value="Azure Blob Storage" style="text;html=1;align=center;verticalAlign=middle;resizable=0;points=[];autosize=1;strokeColor=none;fillColor=none;" vertex="1" parent="1">
          <mxGeometry x="15.5" y="363" width="122" height="26" as="geometry" />
        </mxCell>
        <mxCell id="cF_BGHcVGKTdRNBgxszt-5" style="edgeStyle=orthogonalEdgeStyle;rounded=0;orthogonalLoop=1;jettySize=auto;html=1;entryX=0.493;entryY=0.085;entryDx=0;entryDy=0;entryPerimeter=0;" edge="1" parent="1" source="uyLfLBw68PQgpM0fTjDZ-4" target="cF_BGHcVGKTdRNBgxszt-3">
          <mxGeometry relative="1" as="geometry" />
        </mxCell>
        <mxCell id="cF_BGHcVGKTdRNBgxszt-6" style="edgeStyle=orthogonalEdgeStyle;rounded=0;orthogonalLoop=1;jettySize=auto;html=1;entryX=0.457;entryY=0.046;entryDx=0;entryDy=0;entryPerimeter=0;" edge="1" parent="1" source="uyLfLBw68PQgpM0fTjDZ-4" target="uyLfLBw68PQgpM0fTjDZ-5">
          <mxGeometry relative="1" as="geometry" />
        </mxCell>
      </root>
    </mxGraphModel>
  </diagram>
</mxfile>
